<svg aria-hidden="true" style="position: absolute; width: 0; height: 0; overflow: hidden;" version="1.1" xmlns="http://www.w3.org/2000/svg" xmlns:xlink="http://www.w3.org/1999/xlink">
<defs>
<symbol id="icon-close" viewBox="0 0 60 32">
<path d="M60 26.69c0.002-0.683-0.139-1.358-0.414-1.975s-0.675-1.161-1.172-1.591l-25.712-22.084c-0.767-0.672-1.729-1.040-2.721-1.040s-1.954 0.368-2.721 1.040l-25.712 22.861c-0.875 0.776-1.425 1.891-1.53 3.1s0.245 2.413 0.973 3.347c0.727 0.934 1.773 1.521 2.906 1.632s2.261-0.262 3.137-1.038l22.969-20.438 22.969 19.752c0.629 0.559 1.395 0.914 2.208 1.023s1.637-0.032 2.376-0.407c0.739-0.375 1.362-0.968 1.796-1.71s0.658-1.599 0.649-2.473z"></path>
</symbol>
<symbol id="icon-open" viewBox="0 0 60 32">
<path d="M60 5.31c0.002 0.683-0.139 1.358-0.414 1.975s-0.675 1.161-1.172 1.591l-25.712 22.084c-0.767 0.672-1.729 1.040-2.721 1.040s-1.954-0.368-2.721-1.040l-25.712-22.861c-0.875-0.776-1.425-1.891-1.53-3.1s0.245-2.413 0.973-3.347c0.727-0.934 1.773-1.521 2.906-1.632s2.261 0.262 3.137 1.038l22.969 20.438 22.969-19.752c0.629-0.559 1.395-0.914 2.208-1.023s1.637 0.032 2.376 0.407 1.362 0.968 1.796 1.71c0.433 0.741 0.658 1.599 0.649 2.473z"></path>
</symbol>
</defs>
</svg>
