<svg aria-hidden="true" style="position: absolute; width: 0; height: 0; overflow: hidden;" version="1.1" xmlns="http://www.w3.org/2000/svg" xmlns:xlink="http://www.w3.org/1999/xlink">
<defs>
<symbol id="icon-right" viewBox="0 0 32 32">
<path d="M17.293 7.293c0.391-0.391 1.024-0.391 1.414 0l8 8c0.39 0.391 0.39 1.024 0 1.414l-8 8c-0.391 0.39-1.024 0.39-1.414 0s-0.391-1.024 0-1.414l6.293-6.293h-17.586c-0.552 0-1-0.448-1-1s0.448-1 1-1h17.586l-6.293-6.293c-0.391-0.391-0.391-1.024 0-1.414z"></path>
</symbol>
<symbol id="icon-logo" viewBox="0 0 103 32">
<path fill="#fff" style="fill: var(--color2, #fff)" d="M6.4 11.733c0 5.297 4.249 7.467 8.533 7.467v7.467c0 0.589 0.478 1.067 1.067 1.067s1.067-0.478 1.067-1.067v-20.053h2.133v20.053c0 0.589 0.478 1.067 1.067 1.067s1.067-0.478 1.067-1.067v-20.053h3.2c0.648 0 1.173-0.525 1.173-1.173s-0.525-1.173-1.173-1.173h-9.6c-4.284 0-8.533 2.17-8.533 7.467z"></path>
<path fill="#fff" style="fill: var(--color2, #fff)" d="M39.153 22.909v-13.745h5.086c1.1 0 2.009 0.183 2.729 0.55s1.257 0.871 1.61 1.512c0.353 0.641 0.53 1.361 0.53 2.16 0 0.759-0.17 1.46-0.511 2.101-0.34 0.628-0.871 1.139-1.591 1.532-0.72 0.38-1.643 0.569-2.769 0.569h-2.572v5.321h-2.513zM41.667 15.545h2.415c0.877 0 1.505-0.19 1.885-0.569 0.393-0.393 0.589-0.923 0.589-1.591 0-0.681-0.196-1.211-0.589-1.591-0.38-0.393-1.008-0.589-1.885-0.589h-2.415v4.34zM55.197 23.145c-0.943 0-1.793-0.216-2.553-0.648-0.746-0.432-1.342-1.028-1.787-1.787-0.432-0.772-0.648-1.663-0.648-2.671s0.223-1.892 0.668-2.651c0.445-0.772 1.041-1.375 1.787-1.807 0.759-0.432 1.61-0.648 2.553-0.648 0.929 0 1.767 0.216 2.513 0.648 0.759 0.432 1.355 1.034 1.787 1.807 0.445 0.759 0.668 1.643 0.668 2.651s-0.223 1.898-0.668 2.671c-0.432 0.759-1.028 1.355-1.787 1.787s-1.604 0.648-2.533 0.648zM55.197 20.965c0.655 0 1.224-0.242 1.708-0.727 0.484-0.497 0.727-1.231 0.727-2.199s-0.242-1.695-0.727-2.18c-0.484-0.497-1.047-0.746-1.689-0.746-0.668 0-1.244 0.249-1.728 0.746-0.471 0.484-0.707 1.211-0.707 2.18s0.236 1.702 0.707 2.199c0.484 0.484 1.054 0.727 1.708 0.727zM62.432 22.909v-9.74h2.239l0.236 1.826c0.353-0.628 0.831-1.126 1.433-1.492 0.615-0.38 1.335-0.569 2.16-0.569v2.651h-0.707c-0.55 0-1.041 0.085-1.473 0.255s-0.772 0.465-1.021 0.884c-0.236 0.419-0.353 1.001-0.353 1.748v4.438h-2.513zM74.557 22.909c-1.021 0-1.839-0.249-2.455-0.746s-0.923-1.381-0.923-2.651v-4.241h-1.669v-2.101h1.669l0.295-2.612h2.219v2.612h2.631v2.101h-2.631v4.261c0 0.471 0.098 0.799 0.295 0.982 0.209 0.17 0.563 0.255 1.060 0.255h1.217v2.14h-1.708zM79.837 11.657c-0.458 0-0.838-0.137-1.139-0.412-0.288-0.275-0.432-0.622-0.432-1.041s0.144-0.759 0.432-1.021c0.301-0.275 0.681-0.412 1.139-0.412s0.831 0.137 1.119 0.412c0.301 0.262 0.452 0.602 0.452 1.021s-0.151 0.766-0.452 1.041c-0.288 0.275-0.661 0.412-1.119 0.412zM78.58 22.909v-9.74h2.513v9.74h-2.513zM88.449 23.145c-0.982 0-1.852-0.209-2.612-0.628s-1.355-1.008-1.787-1.767c-0.432-0.759-0.648-1.636-0.648-2.631 0-1.008 0.209-1.905 0.628-2.69 0.432-0.785 1.021-1.394 1.767-1.826 0.759-0.445 1.649-0.668 2.671-0.668 0.956 0 1.8 0.209 2.533 0.628s1.303 0.995 1.708 1.728c0.419 0.72 0.628 1.525 0.628 2.415 0 0.144-0.007 0.295-0.020 0.452 0 0.157-0.007 0.321-0.020 0.491h-7.403c0.052 0.759 0.314 1.355 0.785 1.787 0.484 0.432 1.067 0.648 1.748 0.648 0.511 0 0.936-0.111 1.276-0.334 0.353-0.236 0.615-0.537 0.785-0.903h2.553c-0.183 0.615-0.491 1.178-0.923 1.689-0.419 0.497-0.943 0.89-1.571 1.178-0.615 0.288-1.316 0.432-2.101 0.432zM88.469 14.976c-0.615 0-1.159 0.177-1.63 0.53-0.471 0.34-0.772 0.864-0.903 1.571h4.85c-0.039-0.641-0.275-1.152-0.707-1.532s-0.969-0.569-1.61-0.569zM95.453 22.909v-9.74h2.239l0.236 1.826c0.353-0.628 0.831-1.126 1.433-1.492 0.615-0.38 1.335-0.569 2.16-0.569v2.651h-0.707c-0.55 0-1.041 0.085-1.473 0.255s-0.772 0.465-1.021 0.884c-0.236 0.419-0.353 1.001-0.353 1.748v4.438h-2.513z"></path>
</symbol>
<symbol id="icon-figma" viewBox="0 0 32 32">
<path style="fill: var(--bg-color, #223)" d="M16 0c8.837 0 16 7.163 16 16s-7.163 16-16 16c-8.837 0-16-7.163-16-16s7.163-16 16-16z"></path>
<path style="fill: var(--icon-color, #fff)" d="M16 11.673h-1.073c-0.592 0-1.073 0.48-1.073 1.073s0.48 1.073 1.073 1.073h1.073v-2.145zM16 10.945h1.8c0.994 0 1.8 0.806 1.8 1.8 0 0.587-0.281 1.108-0.715 1.436 0.434 0.329 0.715 0.85 0.715 1.436 0 0.994-0.806 1.8-1.8 1.8-0.402 0-0.773-0.132-1.073-0.354v1.427c0 0.994-0.806 1.8-1.8 1.8s-1.8-0.806-1.8-1.8c0-0.587 0.281-1.108 0.715-1.436-0.434-0.329-0.715-0.85-0.715-1.436s0.281-1.108 0.715-1.436c-0.434-0.329-0.715-0.85-0.715-1.436 0-0.994 0.806-1.8 1.8-1.8h1.073zM16.727 11.673v2.145h1.073c0.593 0 1.073-0.48 1.073-1.073s-0.48-1.073-1.073-1.073h-1.073zM14.927 16.691h1.073v-2.145h-1.073c-0.592 0-1.073 0.48-1.073 1.073 0 0.591 0.478 1.070 1.069 1.073h0.004zM13.855 18.491c0-0.591 0.478-1.070 1.069-1.073h1.077v1.073c0 0.592-0.48 1.073-1.073 1.073s-1.073-0.48-1.073-1.073zM16.727 15.616c0.001-0.591 0.481-1.071 1.073-1.071s1.073 0.48 1.073 1.073-0.48 1.073-1.073 1.073c-0.592 0-1.072-0.479-1.073-1.071v-0.004z"></path>
</symbol>
<symbol id="icon-boltm" viewBox="0 0 32 32">
<path style="fill: var(--bg-color, #223)" d="M16 0c8.837 0 16 7.163 16 16s-7.163 16-16 16c-8.837 0-16-7.163-16-16s7.163-16 16-16z"></path>
<path style="fill: var(--icon-color, #fff)" d="M13.369 11.124c0.058-0.132 0.189-0.217 0.333-0.217h5.571c0.201 0 0.364 0.163 0.364 0.364v2.911c0 0.201-0.163 0.364-0.364 0.364h-2.084l2.104 2.3c0.097 0.106 0.123 0.26 0.064 0.392s-0.189 0.217-0.333 0.217h-2.298v2.545c0 0.147-0.089 0.28-0.224 0.336s-0.292 0.025-0.396-0.079l-2.909-2.909c-0.068-0.068-0.107-0.161-0.107-0.257v-2.909c0-0.201 0.163-0.364 0.364-0.364h2.084l-2.105-2.302c-0.097-0.106-0.123-0.26-0.064-0.392zM16.524 13.818l-1.997-2.184h4.382v2.184h-2.385zM16.203 14.545h-2.385v2.182h4.382l-1.996-2.182zM14.332 17.455l1.668 1.668v-1.668h-1.668z"></path>
</symbol>
<symbol id="icon-delta" viewBox="0 0 32 32">
<path style="fill: var(--bg-color, #223)" d="M16 0c8.837 0 16 7.163 16 16s-7.163 16-16 16c-8.837 0-16-7.163-16-16s7.163-16 16-16z"></path>
<path style="fill: var(--icon-color, #fff)" d="M16.364 10.909l5.018 8.727h-10.036l5.018-8.727zM16.364 12.368l-3.761 6.541h7.522l-3.761-6.541z"></path>
</symbol>
<symbol id="icon-ball" viewBox="0 0 32 32">
<path style="fill: var(--bg-color, #223)" d="M16 0c8.837 0 16 7.163 16 16s-7.163 16-16 16c-8.837 0-16-7.163-16-16s7.163-16 16-16z"></path>
<path style="fill: var(--icon-color, #fff)" d="M12.255 15.636c0-0.209 0.015-0.414 0.046-0.614l5.564-3.213c0.218 0.086 0.426 0.189 0.624 0.309l-4.837 2.793c-0.025 0.013-0.048 0.030-0.069 0.050-0.062 0.059-0.097 0.139-0.101 0.221-0.002 0.047 0.006 0.096 0.025 0.142 0.013 0.032 0.032 0.063 0.056 0.090 0.019 0.021 0.040 0.040 0.063 0.055l2.612 1.867-2.511 1.45c-0.899-0.754-1.471-1.885-1.471-3.15zM16.995 17.655c0.006-0.003 0.012-0.007 0.018-0.010l1.053-0.608c0.005-0.002 0.009-0.005 0.013-0.008l1.055-0.609c0.040-0.022 0.077-0.053 0.106-0.092 0.108-0.145 0.077-0.35-0.068-0.458l-2.57-1.906 2.464-1.423c0.862 0.753 1.406 1.861 1.406 3.095 0 0.244-0.021 0.483-0.062 0.715l-5.452 3.148c-0.223-0.081-0.438-0.181-0.642-0.299l2.678-1.546zM16.859 16.977l-2.447-1.749 0.504-0.291 2.398 1.778-0.454 0.262zM15.534 14.581l0.451-0.26 2.398 1.778-0.451 0.26-2.398-1.778zM16.969 11.572l-4.428 2.557c0.601-1.523 2.087-2.601 3.824-2.601 0.206 0 0.407 0.015 0.605 0.044zM15.889 19.718c0.156 0.018 0.314 0.027 0.475 0.027 1.691 0 3.143-1.021 3.774-2.48l-4.249 2.453zM16.364 10.8c-2.671 0-4.836 2.165-4.836 4.836s2.165 4.836 4.836 4.836c2.671 0 4.836-2.165 4.836-4.836s-2.165-4.836-4.836-4.836z"></path>
</symbol>
<symbol id="icon-m" viewBox="0 0 32 32">
<path style="fill: var(--bg-color, #223)" d="M16 0c8.837 0 16 7.163 16 16s-7.163 16-16 16c-8.837 0-16-7.163-16-16s7.163-16 16-16z"></path>
<path style="fill: var(--icon-color, #fff)" d="M16.189 12.485l-2.101 1.576v-3.152l2.101 1.576zM11.636 16.162l2.101-1.576-2.101-1.576v3.152zM11.636 20.364l2.101-1.576-2.101-1.576v3.151zM16.539 16.162l2.101-1.576-2.101-1.576v3.152zM21.091 12.485l-2.101 1.576v-3.152l2.101 1.576zM18.99 18.263l2.101-1.576-2.101-1.576v3.151zM13.737 18.263l-2.101-1.576 2.101-1.576v3.151zM14.088 14.586l2.101 1.576v-3.152l-2.101 1.576zM13.737 14.061l-2.101-1.576 2.101-1.576v3.152zM16.539 12.485l2.101 1.576v-3.152l-2.101 1.576zM21.091 16.162l-2.101-1.576 2.101-1.576v3.152zM18.99 18.788l2.101 1.576v-3.151l-2.101 1.576z"></path>
</symbol>
<symbol id="icon-bolt" viewBox="0 0 32 32">
<path style="fill: var(--bg-color, #223)" d="M16 0c8.837 0 16 7.163 16 16s-7.163 16-16 16c-8.837 0-16-7.163-16-16s7.163-16 16-16z"></path>
<path style="fill: var(--icon-color, #fff)" d="M12.383 9.296c0.080-0.181 0.259-0.298 0.457-0.298h7.66c0.276 0 0.5 0.224 0.5 0.5v4.003c0 0.276-0.224 0.5-0.5 0.5h-2.865l2.894 3.163c0.134 0.146 0.169 0.358 0.089 0.539s-0.259 0.298-0.457 0.298h-3.16v3.5c0 0.202-0.122 0.384-0.309 0.462s-0.402 0.035-0.545-0.108l-4-4c-0.094-0.094-0.146-0.221-0.146-0.354v-4c0-0.276 0.224-0.5 0.5-0.5h2.865l-2.894-3.165c-0.134-0.146-0.168-0.358-0.089-0.539zM16.72 13l-2.746-3.003h6.025v3.003h-3.28zM16.28 14h-3.28v3h6.025l-2.745-3zM13.707 18l2.293 2.293v-2.293h-2.293z"></path>
</symbol>
<symbol id="icon-cube" viewBox="0 0 32 32">
<path style="fill: var(--bg-color, #223)" d="M16 0c8.837 0 16 7.163 16 16s-7.163 16-16 16c-8.837 0-16-7.163-16-16s7.163-16 16-16z"></path>
<path style="fill: var(--icon-color, #fff)" d="M16.711 8.797c-0.134-0.063-0.289-0.063-0.423 0l-6 2.8c-0.176 0.082-0.289 0.259-0.289 0.453v6.9c0 0.194 0.113 0.371 0.289 0.453l6 2.8c0.134 0.063 0.289 0.063 0.423 0l6-2.8c0.176-0.082 0.289-0.259 0.289-0.453v-6.9c0-0.194-0.113-0.371-0.289-0.453l-6-2.8zM16.5 11.157l-1.52-0.646 1.52-0.709 1.52 0.709-1.52 0.646zM16.696 12.16l2.543-1.081 2.034 0.949-4.772 2.028-4.772-2.028 2.034-0.949 2.543 1.081c0.125 0.053 0.266 0.053 0.391 0zM17 14.931l5-2.125v3.124l-1.918 0.882c-0.355 0.163-0.582 0.518-0.582 0.909v2.078l-2.5 1.167v-6.034zM20.5 19.332l1.5-0.7v-1.601l-1.5 0.69v1.611zM16 14.931v6.034l-2.498-1.166v-2.079c0-0.39-0.227-0.745-0.582-0.909l-1.92-0.883v-3.123l5 2.125zM11 18.632l1.502 0.701v-1.612l-1.502-0.691v1.602z"></path>
</symbol>
<symbol id="icon-github" viewBox="0 0 32 32">
<path style="fill: var(--bg-color, #223)" d="M16 0c8.837 0 16 7.163 16 16s-7.163 16-16 16c-8.837 0-16-7.163-16-16s7.163-16 16-16z"></path>
<path style="fill: var(--icon-color, #fff)" d="M16.499 8.85c-3.672 0-6.649 2.977-6.649 6.65 0 2.938 1.905 5.43 4.548 6.31 0.333 0.061 0.454-0.145 0.454-0.321 0-0.158-0.006-0.576-0.009-1.131-1.85 0.402-2.24-0.892-2.24-0.892-0.303-0.768-0.739-0.973-0.739-0.973-0.604-0.412 0.046-0.404 0.046-0.404 0.668 0.047 1.019 0.685 1.019 0.685 0.593 1.016 1.557 0.723 1.935 0.552 0.060-0.43 0.232-0.723 0.422-0.889-1.477-0.168-3.029-0.738-3.029-3.287 0-0.726 0.259-1.319 0.685-1.784-0.069-0.168-0.297-0.844 0.065-1.76 0 0 0.558-0.179 1.829 0.681 0.53-0.147 1.099-0.221 1.665-0.224 0.565 0.003 1.134 0.076 1.665 0.224 1.27-0.86 1.827-0.681 1.827-0.681 0.363 0.916 0.135 1.592 0.067 1.76 0.426 0.465 0.683 1.058 0.683 1.784 0 2.555-1.555 3.117-3.036 3.281 0.238 0.205 0.451 0.611 0.451 1.232 0 0.889-0.008 1.606-0.008 1.824 0 0.178 0.12 0.385 0.457 0.32 2.64-0.881 4.544-3.372 4.544-6.309 0-3.673-2.978-6.65-6.651-6.65z"></path>
</symbol>
<symbol id="icon-twitter" viewBox="0 0 32 32">
<path style="fill: var(--bg-color, #223)" d="M16 0c8.837 0 16 7.163 16 16s-7.163 16-16 16c-8.837 0-16-7.163-16-16s7.163-16 16-16z"></path>
<path style="fill: var(--icon-color, #fff)" d="M16.233 12.696l0 0.043c-1.793-0.244-3.368-1.168-4.46-2.507-0.133-0.163-0.348-0.221-0.538-0.161-0.129 0.017-0.249 0.090-0.323 0.209-0.329 0.531-0.332 1.121-0.332 1.589 0 0.51 0.124 0.992 0.344 1.416-0.050 0.009-0.099 0.027-0.144 0.054-0.137 0.081-0.222 0.228-0.222 0.388v0.034c0 0.921 0.404 1.747 1.045 2.311-0.004 0.004-0.007 0.008-0.011 0.012-0.105 0.119-0.14 0.284-0.091 0.436 0.269 0.84 0.89 1.524 1.69 1.877-0.806 0.352-1.722 0.464-2.637 0.356-0.181-0.021-0.35 0.068-0.438 0.214-0.015 0.018-0.030 0.037-0.043 0.058-0.149 0.232-0.082 0.542 0.151 0.691 1.24 0.796 2.714 1.259 4.296 1.259 5.166 0 7.974-4.288 7.974-7.974 0-0.177-0.013-0.354-0.040-0.53 0.487-0.363 0.911-0.809 1.248-1.313l0.001-0.002c-0.468 0.208-0.971 0.348-1.5 0.412-0-0.001-0.001-0.002-0.001-0.003 0.539-0.325 0.953-0.839 1.148-1.45-0.496 0.294-1.043 0.509-1.626 0.629-0.542-0.696-1.352-1.175-2.365-1.175-1.727 0-3.127 1.4-3.127 3.128zM14.521 19.975c-0.787 0-1.543-0.131-2.249-0.372 0.858-0.148 1.681-0.486 2.39-1.042 0.15-0.117 0.21-0.317 0.149-0.497s-0.228-0.303-0.419-0.307c-0.703-0.012-1.325-0.359-1.715-0.888 0.19-0.015 0.376-0.048 0.556-0.097 0.202-0.055 0.339-0.241 0.332-0.449s-0.156-0.385-0.361-0.426c-0.779-0.156-1.407-0.728-1.644-1.474 0.201 0.049 0.409 0.077 0.623 0.084 0.201 0.007 0.382-0.121 0.443-0.312s-0.011-0.4-0.178-0.512c-0.584-0.391-0.968-1.058-0.968-1.813 0-0.168 0.002-0.317 0.012-0.452 1.358 1.382 3.215 2.272 5.282 2.376 0.156 0.008 0.307-0.058 0.408-0.178s0.139-0.28 0.105-0.433c-0.036-0.158-0.055-0.32-0.055-0.486 0-1.175 0.953-2.128 2.127-2.128 1.234 0 2.136 1.144 2.136 2.432 0 3.256-2.475 6.974-6.974 6.974z"></path>
</symbol>
<symbol id="icon-more" viewBox="0 0 32 32">
<path style="fill: var(--bg-color, #223)" d="M5.818 0h20.364c3.213 0 5.818 2.605 5.818 5.818v20.364c0 3.213-2.605 5.818-5.818 5.818h-20.364c-3.213 0-5.818-2.605-5.818-5.818v-20.364c0-3.213 2.605-5.818 5.818-5.818z"></path>
<path style="fill: var(--icon-color, #fff)" d="M12.834 19.166c-0.142-0.142-0.142-0.372 0-0.514l4.834-4.834h-3.122c-0.201 0-0.364-0.163-0.364-0.364s0.163-0.364 0.364-0.364h4c0.096 0 0.189 0.038 0.257 0.107s0.106 0.161 0.106 0.257v4c0 0.201-0.163 0.364-0.364 0.364s-0.364-0.163-0.364-0.364v-3.122l-4.834 4.834c-0.142 0.142-0.372 0.142-0.514 0z"></path>
</symbol>
<symbol id="icon-letter" viewBox="0 0 32 32">
<path style="fill: var(--bg-color, #223)" d="M5.818 0h20.364c3.213 0 5.818 2.605 5.818 5.818v20.364c0 3.213-2.605 5.818-5.818 5.818h-20.364c-3.213 0-5.818-2.605-5.818-5.818v-20.364c0-3.213 2.605-5.818 5.818-5.818z"></path>
<path style="fill: var(--icon-color, #fff)" d="M12.865 12.182c-0.15 0-0.285 0.093-0.339 0.233l-2.32 6.051c-0.072 0.188 0.022 0.398 0.209 0.47s0.398-0.022 0.47-0.209l0.759-1.981h2.452l0.764 1.982c0.072 0.187 0.283 0.281 0.47 0.208s0.281-0.283 0.208-0.47l-2.334-6.051c-0.054-0.14-0.189-0.233-0.34-0.233zM12.867 13.558l0.991 2.569h-1.976l0.985-2.569zM18.108 13.969c0.65 0 1.241 0.287 1.64 0.739v-0.366c0-0.181 0.146-0.327 0.327-0.327s0.327 0.147 0.327 0.327v4.225c0 0.181-0.147 0.327-0.327 0.327s-0.327-0.147-0.327-0.327v-0.37c-0.422 0.471-1.042 0.72-1.64 0.72-1.12 0-2.102-1.003-2.102-2.475 0-1.399 0.908-2.475 2.102-2.475zM19.749 17.308v-1.815c-0.284-0.524-0.882-0.905-1.504-0.905-0.711 0-1.492 0.661-1.492 1.856 0 1.123 0.708 1.856 1.492 1.856 0.642 0 1.226-0.485 1.504-0.991z"></path>
</symbol>
<symbol id="icon-area" viewBox="0 0 32 32">
<path style="fill: var(--bg-color, #223)" d="M5.818 0h20.364c3.213 0 5.818 2.605 5.818 5.818v20.364c0 3.213-2.605 5.818-5.818 5.818h-20.364c-3.213 0-5.818-2.605-5.818-5.818v-20.364c0-3.213 2.605-5.818 5.818-5.818z"></path>
<path style="fill: var(--icon-color, #fff)" d="M11.236 11.6c-0.097 0-0.189 0.038-0.257 0.106s-0.106 0.161-0.106 0.257v1.455c0 0.201 0.163 0.364 0.364 0.364s0.364-0.163 0.364-0.364v-1.091h1.091c0.201 0 0.364-0.163 0.364-0.364s-0.163-0.364-0.364-0.364h-1.455zM14.509 11.6c-0.201 0-0.364 0.163-0.364 0.364s0.163 0.364 0.364 0.364h2.182c0.201 0 0.364-0.163 0.364-0.364s-0.163-0.364-0.364-0.364h-2.182zM14.145 20.691c0-0.201 0.163-0.364 0.364-0.364h2.182c0.201 0 0.364 0.163 0.364 0.364s-0.163 0.364-0.364 0.364h-2.182c-0.201 0-0.364-0.163-0.364-0.364zM11.6 15.236c0-0.201-0.163-0.364-0.364-0.364s-0.364 0.163-0.364 0.364v2.182c0 0.201 0.163 0.364 0.364 0.364s0.364-0.163 0.364-0.364v-2.182zM19.964 14.873c0.201 0 0.364 0.163 0.364 0.364v2.182c0 0.201-0.163 0.364-0.364 0.364s-0.364-0.163-0.364-0.364v-2.182c0-0.201 0.163-0.364 0.364-0.364zM18.509 11.6c-0.201 0-0.364 0.163-0.364 0.364s0.163 0.364 0.364 0.364h1.091v1.091c0 0.201 0.163 0.364 0.364 0.364s0.364-0.163 0.364-0.364v-1.455c0-0.201-0.163-0.364-0.364-0.364h-1.454zM11.236 18.873c0.201 0 0.364 0.163 0.364 0.364v1.091h1.091c0.201 0 0.364 0.163 0.364 0.364s-0.163 0.364-0.364 0.364h-1.455c-0.201 0-0.364-0.163-0.364-0.364v-1.455c0-0.201 0.163-0.364 0.364-0.364zM20.327 19.236c0-0.201-0.163-0.364-0.364-0.364s-0.364 0.163-0.364 0.364l-0.001 1.091h-1.090c-0.201 0-0.364 0.163-0.364 0.364s0.163 0.364 0.364 0.364h1.454c0.201 0 0.364-0.163 0.364-0.364l0-1.455z"></path>
</symbol>
<symbol id="icon-cage" viewBox="0 0 32 32">
<path style="fill: var(--bg-color, #223)" d="M5.818 0h20.364c3.213 0 5.818 2.605 5.818 5.818v20.364c0 3.213-2.605 5.818-5.818 5.818h-20.364c-3.213 0-5.818-2.605-5.818-5.818v-20.364c0-3.213 2.605-5.818 5.818-5.818z"></path>
<path style="fill: var(--icon-color, #fff)" d="M18.909 11.273v1.818h1.818c0.201 0 0.364 0.163 0.364 0.364s-0.163 0.364-0.364 0.364h-1.818v3.636h1.818c0.201 0 0.364 0.163 0.364 0.364s-0.163 0.364-0.364 0.364h-1.818v1.818c0 0.201-0.163 0.364-0.364 0.364s-0.364-0.163-0.364-0.364v-1.818h-3.636v1.818c0 0.201-0.163 0.364-0.364 0.364s-0.364-0.163-0.364-0.364v-1.818h-1.818c-0.201 0-0.364-0.163-0.364-0.364s0.163-0.364 0.364-0.364h1.818v-3.636h-1.818c-0.201 0-0.364-0.163-0.364-0.364s0.163-0.364 0.364-0.364h1.818v-1.818c0-0.201 0.163-0.364 0.364-0.364s0.364 0.163 0.364 0.364v1.818h3.636v-1.818c0-0.201 0.163-0.364 0.364-0.364s0.364 0.163 0.364 0.364zM18.182 17.455v-3.636h-3.636v3.636h3.636z"></path>
</symbol>
<symbol id="icon-fur" viewBox="0 0 32 32">
<path style="fill: var(--bg-color, #223)" d="M5.818 0h20.364c3.213 0 5.818 2.605 5.818 5.818v20.364c0 3.213-2.605 5.818-5.818 5.818h-20.364c-3.213 0-5.818-2.605-5.818-5.818v-20.364c0-3.213 2.605-5.818 5.818-5.818z"></path>
<path style="fill: var(--icon-color, #fff)" d="M17.455 14.909c0-1.406-1.14-2.545-2.545-2.545s-2.545 1.14-2.545 2.545c0 1.406 1.14 2.545 2.545 2.545s2.545-1.14 2.545-2.545zM16.952 17.466c-0.56 0.448-1.27 0.716-2.043 0.716-1.807 0-3.273-1.465-3.273-3.273s1.465-3.273 3.273-3.273c1.808 0 3.273 1.465 3.273 3.273 0 0.773-0.268 1.483-0.716 2.043l2.064 2.064c0.142 0.142 0.142 0.372 0 0.514s-0.372 0.142-0.514 0l-2.064-2.064zM13.273 14.909c0-0.201 0.163-0.364 0.364-0.364h0.909v-0.909c0-0.201 0.163-0.364 0.364-0.364s0.364 0.163 0.364 0.364v0.909h0.909c0.201 0 0.364 0.163 0.364 0.364s-0.163 0.364-0.364 0.364h-0.909v0.909c0 0.201-0.163 0.364-0.364 0.364s-0.364-0.163-0.364-0.364v-0.909h-0.909c-0.201 0-0.364-0.163-0.364-0.364z"></path>
</symbol>
<symbol id="icon-smile" viewBox="0 0 32 32">
<path style="fill: var(--bg-color, #223)" d="M5.818 0h20.364c3.213 0 5.818 2.605 5.818 5.818v20.364c0 3.213-2.605 5.818-5.818 5.818h-20.364c-3.213 0-5.818-2.605-5.818-5.818v-20.364c0-3.213 2.605-5.818 5.818-5.818z"></path>
<path style="fill: var(--icon-color, #fff)" d="M15.636 10.82c-2.66 0-4.817 2.156-4.817 4.817s2.156 4.817 4.817 4.817c2.66 0 4.817-2.157 4.817-4.817s-2.156-4.817-4.817-4.817zM11.511 15.636c0-2.279 1.847-4.126 4.126-4.126s4.126 1.847 4.126 4.126c0 2.279-1.847 4.126-4.126 4.126s-4.126-1.847-4.126-4.126zM13.845 16.883c-0.115-0.165-0.342-0.205-0.506-0.090s-0.205 0.342-0.090 0.506c0.525 0.753 1.399 1.247 2.387 1.247s1.862-0.494 2.388-1.247c0.115-0.165 0.074-0.391-0.090-0.506s-0.391-0.074-0.506 0.090c-0.395 0.566-1.050 0.935-1.791 0.935s-1.396-0.369-1.791-0.935zM14.091 15.164c0.351 0 0.636-0.285 0.636-0.636s-0.285-0.636-0.636-0.636c-0.351 0-0.636 0.285-0.636 0.636s0.285 0.636 0.636 0.636zM17.818 14.527c0 0.351-0.285 0.636-0.636 0.636s-0.636-0.285-0.636-0.636c0-0.351 0.285-0.636 0.636-0.636s0.636 0.285 0.636 0.636z"></path>
</symbol>
<symbol id="icon-planet" viewBox="0 0 32 32">
<path style="fill: var(--bg-color, #223)" d="M5.818 0h20.364c3.213 0 5.818 2.605 5.818 5.818v20.364c0 3.213-2.605 5.818-5.818 5.818h-20.364c-3.213 0-5.818-2.605-5.818-5.818v-20.364c0-3.213 2.605-5.818 5.818-5.818z"></path>
<path style="fill: var(--icon-color, #fff)" d="M15.636 11.491c-2.29 0-4.145 1.856-4.145 4.145s1.856 4.145 4.145 4.145c2.289 0 4.145-1.856 4.145-4.145s-1.856-4.145-4.145-4.145zM10.836 15.636c0-2.651 2.149-4.8 4.8-4.8s4.8 2.149 4.8 4.8-2.149 4.8-4.8 4.8c-2.651 0-4.8-2.149-4.8-4.8z"></path>
<path style="fill: var(--icon-color, #fff)" d="M20 15.927h-8.727v-0.582h8.727v0.582z"></path>
<path style="fill: var(--icon-color, #fff)" d="M15.345 20v-8.727h0.582v8.727h-0.582zM17.727 15.636c0-1.58-0.568-3.143-1.682-4.177l0.346-0.373c1.238 1.148 1.845 2.858 1.845 4.55s-0.608 3.402-1.845 4.55l-0.346-0.373c1.114-1.034 1.682-2.597 1.682-4.177zM13.091 15.636c0-1.69 0.588-3.399 1.788-4.548l0.352 0.368c-1.079 1.033-1.631 2.597-1.631 4.18s0.552 3.147 1.631 4.18l-0.352 0.368c-1.2-1.149-1.788-2.857-1.788-4.547z"></path>
<path style="fill: var(--icon-color, #fff)" d="M15.636 13.060c1.578 0 3.182 0.292 4.27 0.899 0.123 0.069 0.167 0.224 0.098 0.346s-0.224 0.167-0.346 0.098c-0.982-0.548-2.488-0.835-4.021-0.835s-3.040 0.286-4.021 0.835c-0.123 0.069-0.278 0.025-0.346-0.098s-0.025-0.278 0.098-0.346c1.088-0.608 2.692-0.899 4.27-0.899zM15.636 18.073c1.578 0 3.182-0.292 4.27-0.899 0.123-0.069 0.167-0.224 0.098-0.346s-0.224-0.167-0.346-0.098c-0.982 0.548-2.488 0.835-4.021 0.835s-3.040-0.286-4.021-0.835c-0.123-0.069-0.278-0.025-0.346 0.098s-0.025 0.278 0.098 0.346c1.088 0.608 2.692 0.899 4.27 0.899z"></path>
</symbol>
<symbol id="icon-sm" viewBox="0 0 32 32">
<path style="fill: var(--bg-color, #223)" d="M5.818 0h20.364c3.213 0 5.818 2.605 5.818 5.818v20.364c0 3.213-2.605 5.818-5.818 5.818h-20.364c-3.213 0-5.818-2.605-5.818-5.818v-20.364c0-3.213 2.605-5.818 5.818-5.818z"></path>
<path style="fill: var(--icon-color, #fff)" d="M10.545 10.182c-0.201 0-0.364 0.163-0.364 0.364v10.182c0 0.201 0.163 0.364 0.364 0.364h2.909c0.201 0 0.364-0.163 0.364-0.364v-6.909h6.909c0.201 0 0.364-0.163 0.364-0.364v-2.909c0-0.201-0.163-0.364-0.364-0.364h-10.182zM10.909 13.145v-2.236h2.236v2.236l-2.236-0zM10.909 13.764v6.6h2.182v-0.782h-0.909c-0.171 0-0.309-0.138-0.309-0.309s0.138-0.309 0.309-0.309h0.909v-0.836h-1.273c-0.171 0-0.309-0.138-0.309-0.309s0.138-0.309 0.309-0.309h1.273v-0.836h-0.909c-0.171 0-0.309-0.138-0.309-0.309s0.138-0.309 0.309-0.309h0.909v-0.836h-0.909c-0.171 0-0.309-0.138-0.309-0.309s0.138-0.309 0.309-0.309h0.909v-0.836l-2.182-0zM13.764 13.091h0.836v-0.909c0-0.171 0.138-0.309 0.309-0.309s0.309 0.138 0.309 0.309v0.909h0.836v-0.909c0-0.171 0.138-0.309 0.309-0.309s0.309 0.138 0.309 0.309v0.909h0.836v-1.273c0-0.171 0.138-0.309 0.309-0.309s0.309 0.138 0.309 0.309v1.273h0.836v-0.909c0-0.171 0.138-0.309 0.309-0.309s0.309 0.138 0.309 0.309v0.909h0.782v-2.182h-6.6v2.182z"></path>
</symbol>
<symbol id="icon-magic" viewBox="0 0 32 32">
<path style="fill: var(--bg-color, #223)" d="M5.818 0h20.364c3.213 0 5.818 2.605 5.818 5.818v20.364c0 3.213-2.605 5.818-5.818 5.818h-20.364c-3.213 0-5.818-2.605-5.818-5.818v-20.364c0-3.213 2.605-5.818 5.818-5.818z"></path>
<path style="fill: var(--icon-color, #fff)" d="M20.291 10.545c0-0.161-0.13-0.291-0.291-0.291s-0.291 0.13-0.291 0.291v0.436h-0.436c-0.161 0-0.291 0.13-0.291 0.291s0.13 0.291 0.291 0.291h0.436v0.436c0 0.161 0.13 0.291 0.291 0.291s0.291-0.13 0.291-0.291v-0.436h0.436c0.161 0 0.291-0.13 0.291-0.291s-0.13-0.291-0.291-0.291h-0.436v-0.436zM18.803 12.47c0.142 0.142 0.142 0.372 0 0.514l-0.727 0.727c-0.142 0.142-0.372 0.142-0.514 0s-0.142-0.372 0-0.514l0.727-0.727c0.142-0.142 0.372-0.142 0.514 0zM17.348 13.925c0.142 0.142 0.142 0.372 0 0.514l-5.091 5.091c-0.142 0.142-0.372 0.142-0.514 0s-0.142-0.372 0-0.514l5.091-5.091c0.142-0.142 0.372-0.142 0.514 0zM20 13.891c0.161 0 0.291 0.13 0.291 0.291v0.436h0.436c0.161 0 0.291 0.13 0.291 0.291s-0.13 0.291-0.291 0.291h-0.436v0.436c0 0.161-0.13 0.291-0.291 0.291s-0.291-0.13-0.291-0.291v-0.436h-0.436c-0.161 0-0.291-0.13-0.291-0.291s0.13-0.291 0.291-0.291h0.436v-0.436c0-0.161 0.13-0.291 0.291-0.291zM16.655 10.545c0-0.161-0.13-0.291-0.291-0.291s-0.291 0.13-0.291 0.291v0.436h-0.436c-0.161 0-0.291 0.13-0.291 0.291s0.13 0.291 0.291 0.291h0.436v0.436c0 0.161 0.13 0.291 0.291 0.291s0.291-0.13 0.291-0.291v-0.436h0.436c0.161 0 0.291-0.13 0.291-0.291s-0.13-0.291-0.291-0.291h-0.436v-0.436z"></path>
</symbol>
<symbol id="icon-person" viewBox="0 0 32 32">
<path style="fill: var(--bg-color, #223)" d="M5.818 0h20.364c3.213 0 5.818 2.605 5.818 5.818v20.364c0 3.213-2.605 5.818-5.818 5.818h-20.364c-3.213 0-5.818-2.605-5.818-5.818v-20.364c0-3.213 2.605-5.818 5.818-5.818z"></path>
<path style="fill: var(--icon-color, #fff)" d="M15.636 10.818c-1.456 0-2.636 1.18-2.636 2.636 0 1.202 0.805 2.216 1.905 2.533-0.868 0.106-1.613 0.413-2.174 0.966-0.714 0.704-1.076 1.752-1.076 3.119 0 0.191 0.155 0.345 0.345 0.345s0.345-0.155 0.345-0.345c0-1.251 0.329-2.094 0.87-2.627 0.541-0.534 1.35-0.81 2.421-0.81s1.88 0.276 2.421 0.81c0.54 0.533 0.87 1.376 0.87 2.627 0 0.191 0.155 0.345 0.345 0.345s0.345-0.155 0.345-0.345c0-1.367-0.362-2.415-1.076-3.119-0.561-0.553-1.306-0.86-2.174-0.966 1.1-0.317 1.904-1.331 1.904-2.533 0-1.456-1.18-2.636-2.636-2.636zM13.691 13.455c0-1.074 0.871-1.945 1.945-1.945s1.945 0.871 1.945 1.945c0 1.074-0.871 1.945-1.945 1.945s-1.945-0.871-1.945-1.945z"></path>
</symbol>
</defs>
</svg>
